Coordinates
version=1
nRows=30
nColumns=34
inDegrees=no

Units are S.I. units (second, meters, Newtons, ...)
If the header above contains a line with 'inDegrees', this indicates whether rotational values are in degrees (yes) or radians (no).

endheader
time	pelvis_tilt	pelvis_list	pelvis_rotation	pelvis_tx	pelvis_ty	pelvis_tz	hip_flexion_r	hip_adduction_r	hip_rotation_r	knee_angle_r	ankle_angle_r	subtalar_angle_r	mtp_angle_r	hip_flexion_l	hip_adduction_l	hip_rotation_l	knee_angle_l	ankle_angle_l	subtalar_angle_l	mtp_angle_l	lumbar_extension	lumbar_bending	lumbar_rotation	arm_flex_r	arm_add_r	arm_rot_r	elbow_flex_r	pro_sup_r	arm_flex_l	arm_add_l	arm_rot_l	elbow_flex_l	pro_sup_l
0.95	0.0196242	0.0866493	-0.0134159	1.0345	0.971901	-0.227605	0.475593	-0.148881	-0.0317485	1.00292	0.020797	-0.0712183	0.00567088	-0.036417	0.135354	-0.0804798	0.157525	0.177737	-0.0324686	-0.0251336	-0.138836	-0.172477	-0.0364954	0.0661795	-0.176609	0.17845	0.463967	1.57046	0.194206	-0.267915	-0.0155878	0.466085	1.85363
0.96	0.020963	0.0808668	-0.00991073	1.04424	0.97211	-0.227454	0.479858	-0.141444	-0.043162	0.953256	0.0242678	-0.0612957	0.00569454	-0.0554845	0.129395	-0.0754575	0.146546	0.182234	-0.0267438	-0.0251882	-0.142039	-0.166891	-0.0447225	0.0627057	-0.177157	0.173537	0.460363	1.56688	0.212868	-0.271922	-0.00917323	0.479912	1.84962
0.97	0.0219141	0.0754992	-0.00713566	1.05399	0.972093	-0.227205	0.482525	-0.134098	-0.0549427	0.899094	0.0268085	-0.0499586	0.0057182	-0.0738514	0.123686	-0.071499	0.135936	0.186852	-0.0211625	-0.0252428	-0.1446	-0.161849	-0.0517497	0.0591388	-0.177704	0.168986	0.456685	1.56319	0.23109	-0.276005	-0.00189402	0.493891	1.84528
0.98	0.0225582	0.0705232	-0.00510617	1.06378	0.971856	-0.226858	0.48344	-0.126716	-0.0670691	0.840489	0.0285818	-0.036398	0.00574187	-0.0916819	0.118246	-0.0685622	0.125639	0.191623	-0.015709	-0.0252975	-0.146618	-0.157324	-0.0575873	0.0555064	-0.178222	0.164679	0.452911	1.55944	0.24884	-0.280089	0.00596636	0.507997	1.84102
0.99	0.0229887	0.0659099	-0.00381082	1.07362	0.971409	-0.226415	0.482459	-0.119168	-0.0794254	0.777583	0.0298209	-0.0198909	0.00576554	-0.10916	0.113085	-0.0665377	0.115584	0.196524	-0.0104158	-0.0253522	-0.148205	-0.153271	-0.0622752	0.0518474	-0.178679	0.160477	0.449005	1.5557	0.266083	-0.284087	0.0140628	0.522226	1.83722
1	0.0233056	0.0616241	-0.00321383	1.08351	0.970762	-0.225879	0.479469	-0.111332	-0.0917559	0.710641	0.0308124	7.77804e-05	0.00578922	-0.126471	0.108197	-0.0652776	0.105703	0.201504	-0.00532546	-0.025407	-0.149481	-0.149626	-0.0658788	0.0482101	-0.179052	0.156237	0.444916	1.55209	0.282773	-0.287907	0.022045	0.536587	1.83416
1.01	0.0236083	0.0576257	-0.00325532	1.09348	0.969927	-0.22526	0.474402	-0.103105	-0.103636	0.640097	0.0318659	0.0236913	0.0058129	-0.143785	0.103564	-0.064633	0.0959469	0.206512	-0.000441313	-0.0254617	-0.150561	-0.146319	-0.0684878	0.044647	-0.179322	0.151831	0.440584	1.54881	0.298854	-0.291469	0.0296041	0.551091	1.83205
1.02	0.0239872	0.0538758	-0.00384898	1.10354	0.968921	-0.224566	0.467252	-0.0944274	-0.114472	0.566597	0.0332733	0.0506941	0.00583659	-0.161221	0.0991556	-0.0644925	0.0863211	0.211535	0.00431837	-0.0255166	-0.151544	-0.143276	-0.0702178	0.0412107	-0.179481	0.147168	0.435941	1.54608	0.314256	-0.294706	0.0365024	0.565743	1.83096
1.03	0.024516	0.0503445	-0.00487889	1.1137	0.967758	-0.223807	0.458105	-0.0853036	-0.123542	0.491051	0.035268	0.0803234	0.00586028	-0.17883	0.0949345	-0.0648135	0.0769106	0.216614	0.00914823	-0.0255715	-0.152506	-0.140431	-0.071213	0.0379495	-0.179532	0.142207	0.430917	1.54417	0.3289	-0.297573	0.0425876	0.580533	1.83087
1.04	0.0252485	0.0470152	-0.00619856	1.12398	0.966456	-0.222995	0.447145	-0.0758208	-0.130083	0.414666	0.0379929	0.111309	0.00588397	-0.196577	0.0908606	-0.0656415	0.0679034	0.221851	0.01436	-0.0256264	-0.153498	-0.137734	-0.0716473	0.0349055	-0.179488	0.13697	0.425443	1.54334	0.342702	-0.300044	0.0477893	0.595431	1.83167
1.05	0.0262157	0.0438837	-0.00763522	1.13439	0.965037	-0.222141	0.434673	-0.0661563	-0.133425	0.338962	0.0414837	0.141962	0.00590766	-0.214334	0.0868923	-0.0671152	0.0596007	0.227395	0.0203602	-0.0256814	-0.154546	-0.135148	-0.0717203	0.0321137	-0.17937	0.131543	0.419458	1.54379	0.355574	-0.302107	0.0521038	0.610382	1.83318
1.06	0.027423	0.0409479	-0.00900157	1.14494	0.963522	-0.221254	0.421108	-0.0565656	-0.133149	0.26574	0.0456661	0.170356	0.00593135	-0.231886	0.0829821	-0.0694596	0.0524097	0.233419	0.0276079	-0.0257364	-0.155651	-0.132647	-0.0716459	0.0296026	-0.179208	0.126065	0.412913	1.54562	0.367428	-0.303757	0.0555691	0.625315	1.83518
1.07	0.0288444	0.0381905	-0.0101147	1.15564	0.961937	-0.220345	0.406977	-0.0473458	-0.129249	0.19701	0.0503597	0.194586	0.00595504	-0.248945	0.0790616	-0.0729691	0.0468206	0.240085	0.036564	-0.0257915	-0.156798	-0.130199	-0.0716345	0.0273952	-0.179035	0.120706	0.405782	1.54879	0.378173	-0.304984	0.0582359	0.64014	1.83746
1.08	0.0304238	0.0355709	-0.0108169	1.16647	0.960307	-0.21942	0.39288	-0.0387734	-0.122243	0.134846	0.0552757	0.213067	0.00597872	-0.265179	0.0750161	-0.0779813	0.0433672	0.247522	0.0476372	-0.0258466	-0.157954	-0.127736	-0.0718692	0.0255095	-0.178889	0.115644	0.398067	1.55311	0.387716	-0.305766	0.0601405	0.654763	1.83982
1.09	0.0320894	0.0330027	-0.0109924	1.17744	0.95866	-0.218485	0.37945	-0.0310338	-0.113191	0.0811901	0.0600042	0.224778	0.00600239	-0.280243	0.0706593	-0.0848422	0.0425786	0.255794	0.0611356	-0.0259017	-0.159075	-0.125129	-0.0724825	0.0239584	-0.178809	0.111034	0.389806	1.55827	0.395962	-0.306061	0.0612849	0.669093	1.84208
1.1	0.0337652	0.0303276	-0.0105785	1.18853	0.957023	-0.217547	0.367272	-0.0241604	-0.103585	0.0376276	0.0639939	0.229412	0.00602606	-0.29382	0.0657167	-0.093861	0.044928	0.264891	0.0772238	-0.0259569	-0.160109	-0.122168	-0.0735411	0.0227478	-0.178833	0.106982	0.381075	1.56386	0.402813	-0.305809	0.0616302	0.683046	1.84411
1.11	0.0353869	0.027305	-0.00956186	1.19974	0.955422	-0.21661	0.356795	-0.0179993	-0.0951237	0.00516177	0.066543	0.22736	0.00604973	-0.305669	0.0598201	-0.105256	0.0507846	0.274717	0.0958915	-0.0260122	-0.161017	-0.118564	-0.075045	0.0218723	-0.178994	0.103524	0.371984	1.56947	0.408171	-0.304933	0.0611037	0.696551	1.84585
1.12	0.0369149	0.0236308	-0.00796606	1.21107	0.953875	-0.215672	0.348248	-0.0122123	-0.0894049	-0.0159519	0.0668245	0.219537	0.00607338	-0.315667	0.0525221	-0.119096	0.0603792	0.285077	0.11693	-0.0260675	-0.161787	-0.113948	-0.076938	0.02131	-0.179321	0.100621	0.362674	1.57473	0.411945	-0.303347	0.0596205	0.709545	1.84725
1.13	0.0383995	0.0189459	-0.00583211	1.22251	0.952428	-0.214725	0.341615	-0.00633228	-0.0876382	-0.0262613	0.0639729	0.207154	0.00609704	-0.323803	0.0433456	-0.135242	0.0737862	0.295673	0.139897	-0.0261229	-0.162413	-0.107929	-0.0791299	0.0210172	-0.179832	0.0981588	0.353301	1.57936	0.414057	-0.300971	0.0571159	0.72197	1.84834
1.14	0.0398792	0.0129108	-0.00320337	1.23409	0.951108	-0.21376	0.336643	0.000156468	-0.0904738	-0.027013	0.0572429	0.19151	0.00612069	-0.330179	0.0318503	-0.153272	0.0909332	0.306068	0.164044	-0.0261783	-0.162918	-0.100138	-0.0815138	0.0209257	-0.180527	0.0959727	0.344029	1.5832	0.414455	-0.297743	0.0535831	0.733759	1.84914
1.15	0.0413959	0.00525273	-0.000114097	1.24581	0.949933	-0.212766	0.332936	0.00772052	-0.097974	-0.0199254	0.0462091	0.17386	0.00614434	-0.334947	0.0177143	-0.172429	0.111622	0.315663	0.188258	-0.0262337	-0.163308	-0.0903019	-0.0839851	0.0209443	-0.181391	0.0938767	0.335014	1.58617	0.413123	-0.293637	0.049107	0.744831	1.84972
1.16	0.0429766	-0.00419416	0.00341894	1.25768	0.948917	-0.21173	0.330044	0.0167105	-0.109684	-0.00693746	0.0309328	0.155313	0.00616798	-0.338247	0.000774566	-0.191688	0.135594	0.323715	0.211151	-0.0262892	-0.16356	-0.0782812	-0.0864563	0.0209648	-0.182389	0.0917032	0.32639	1.58827	0.410083	-0.28867	0.0438786	0.755083	1.85017
1.17	0.044615	-0.0154694	0.00739626	1.2697	0.94807	-0.210644	0.327561	0.0273242	-0.124772	0.0100505	0.0120509	0.136752	0.00619162	-0.340125	-0.0189688	-0.209939	0.162638	0.329419	0.231309	-0.0263448	-0.163615	-0.0640863	-0.0888645	0.0208725	-0.183469	0.0893357	0.31826	1.58956	0.405404	-0.282909	0.0381943	0.764398	1.85056
1.18	0.0462554	-0.0284775	0.011826	1.28189	0.94739	-0.209502	0.325209	0.0395852	-0.142216	0.0294159	-0.00923076	0.118833	0.00621526	-0.340475	-0.0413509	-0.226113	0.192645	0.331948	0.247451	-0.0264004	-0.163364	-0.047883	-0.0911707	0.0205587	-0.184573	0.0867315	0.310689	1.59019	0.399197	-0.27647	0.0324427	0.772648	1.85099
1.19	0.0477871	-0.0429954	0.0167096	1.29422	0.946874	-0.208301	0.322894	0.0533431	-0.160979	0.0499705	-0.0312566	0.102021	0.00623889	-0.339013	-0.0660524	-0.239283	0.225638	0.330468	0.258542	-0.0264561	-0.162652	-0.0299826	-0.0933509	0.0199334	-0.185638	0.0839293	0.303705	1.59034	0.391615	-0.269512	0.0270786	0.779708	1.85153
1.2	0.0490493	-0.0586937	0.0220265	1.30668	0.946507	-0.207044	0.320711	0.0682999	-0.18013	0.0710035	-0.0521372	0.0866185	0.00626251	-0.335282	-0.0926297	-0.248745	0.261763	0.32416	0.263876	-0.0265118	-0.161284	-0.0108117	-0.0953847	0.0189368	-0.186604	0.0810403	0.297308	1.59021	0.382848	-0.262223	0.0225867	0.785463	1.85225
1.21	0.0498455	-0.0751688	0.0277198	1.31923	0.946269	-0.205734	0.3189	0.0840546	-0.198919	0.0922158	-0.0700121	0.0728063	0.00628613	-0.328702	-0.120552	-0.25406	0.301237	0.312228	0.263106	-0.0265677	-0.159053	0.00912851	-0.0972419	0.0175484	-0.187424	0.0782249	0.291482	1.59002	0.373108	-0.25481	0.0194387	0.789826	1.85323
1.22	0.0499747	-0.0919849	0.0336886	1.33185	0.946139	-0.204373	0.317759	0.100159	-0.216794	0.113575	-0.0833067	0.0606852	0.00630975	-0.318655	-0.149248	-0.255074	0.344272	0.293934	0.256231	-0.0266235	-0.155768	0.0293119	-0.0988725	0.0157913	-0.188067	0.0756596	0.286213	1.58995	0.362621	-0.247481	0.0180506	0.79274	1.85453
1.23	0.0492769	-0.108726	0.039789	1.34449	0.946094	-0.202963	0.317551	0.116178	-0.233399	0.135143	-0.0909306	0.0503132	0.00633336	-0.304579	-0.178153	-0.251912	0.390991	0.268655	0.243573	-0.0266795	-0.151291	0.0492334	-0.100202	0.0137316	-0.188523	0.0735025	0.281501	1.59015	0.351609	-0.240426	0.0187427	0.794192	1.8562
1.24	0.0476551	-0.12505	0.045848	1.35711	0.946112	-0.201502	0.318411	0.131733	-0.248544	0.156919	-0.0923851	0.0417407	0.00635696	-0.286077	-0.206742	-0.244948	0.441348	0.235978	0.225717	-0.0267354	-0.145572	0.0684425	-0.101134	0.0114713	-0.188801	0.0718651	0.277374	1.59071	0.340283	-0.233808	0.0217129	0.794208	1.85833
